<?xml version="1.0" standalone="no"?><!DOCTYPE svg PUBLIC "-//W3C//DTD SVG 1.1//EN" "http://www.w3.org/Graphics/SVG/1.1/DTD/svg11.dtd"><svg t="1642777516839" class="icon" viewBox="0 0 1024 1024" version="1.1" xmlns="http://www.w3.org/2000/svg" p-id="2663" xmlns:xlink="http://www.w3.org/1999/xlink" width="200" height="200"><defs><style type="text/css"></style></defs><path d="M824.8 347.5c-7-71.8-38.5-139.6-90.6-191.6-59.3-59.4-138.3-92-222.2-92-83.9 0-162.9 32.6-222.2 92-52 52-83.6 119.7-90.6 191.6-46.7 12.1-81.2 54.7-81.2 105.1v109.7c0 59.9 48.6 108.6 108.5 108.6S335 622.2 335 562.3V452.6c0-49.4-33.2-91.2-78.4-104.3 6.6-57 32.2-110.5 73.6-152 48.6-48.6 113.1-75.2 181.8-75.2 68.7 0 133.3 26.7 181.8 75.2 41.4 41.4 67 94.9 73.6 151.9-45.3 13.1-78.4 54.9-78.4 104.3v109.7c0 49.7 33.6 91.8 79.3 104.6-4.9 60.7-30.9 117.1-74.4 160.7-30.3 30.3-66.8 52.1-106.7 64.2 0.2-2 0.3-4 0.3-6 0-41-33.3-74.3-74.3-74.3s-74.3 33.3-74.3 74.3c0 39.9 31.6 72.5 71.1 74.2 0.7 0 1.4 0.1 2 0.1H514.3c83.1-0.6 161.2-33.2 220-92 54.3-54.3 86.2-124.9 91.3-200.8 46.3-12.4 80.4-54.7 80.4-104.9V452.6c0-50.5-34.5-93-81.2-105.1zM278 452.6v109.7c0 28.4-23.1 51.4-51.5 51.4S175 590.6 175 562.3V452.6c0-28.4 23.1-51.4 51.5-51.4s51.5 23 51.5 51.4z m235.1 416c9.5 0 17.1 7.7 17.1 17.1 0 9.3-7.5 16.9-16.8 17.1h-0.6c-9.3-0.1-16.9-7.8-16.9-17.1 0.1-9.4 7.8-17.1 17.2-17.1zM849 562.3c0 28.4-23.1 51.4-51.5 51.4S746 590.6 746 562.3V452.6c0-28.4 23.1-51.4 51.5-51.4s51.5 23.1 51.5 51.4v109.7z" fill="#625e6b" p-id="2664"></path></svg>