<?xml version="1.0" standalone="no"?><!DOCTYPE svg PUBLIC "-//W3C//DTD SVG 1.1//EN" "http://www.w3.org/Graphics/SVG/1.1/DTD/svg11.dtd"><svg t="1642777418227" class="icon" viewBox="0 0 1024 1024" version="1.1" xmlns="http://www.w3.org/2000/svg" p-id="2264" xmlns:xlink="http://www.w3.org/1999/xlink" width="200" height="200"><defs><style type="text/css"></style></defs><path d="M842.4 153.6H181.6C116.8 153.6 64 206.4 64 271.2v481.6c0 64.8 52.8 117.6 117.6 117.6h660.8c64.8 0 117.6-52.8 117.6-117.6V271.2c0-64.8-52.8-117.6-117.6-117.6zM904 752.8c0 34-27.6 61.6-61.6 61.6H181.6c-34 0-61.6-27.6-61.6-61.6V271.2c0-34 27.6-61.6 61.6-61.6h660.8c34 0 61.6 27.6 61.6 61.6v481.6z" fill="#625e6b" p-id="2265"></path><path d="M354 469.8c18-13.3 29.7-34.6 29.7-58.6 0-40.1-32.7-72.8-72.8-72.8S238 371.1 238 411.2c0 24 11.7 45.3 29.7 58.6-43.6 17.2-74.5 59.8-74.5 109.4 0 15.5 12.5 28 28 28s28-12.5 28-28c0-34 27.6-61.6 61.6-61.6s61.6 27.6 61.6 61.6c0 15.5 12.5 28 28 28s28-12.5 28-28c0-49.6-30.9-92.2-74.4-109.4z m-43.2-75.4c9.3 0 16.8 7.5 16.8 16.8s-7.5 16.8-16.8 16.8-16.8-7.5-16.8-16.8 7.6-16.8 16.8-16.8zM803.2 338.4h-22.4c-15.5 0-28 12.5-28 28s12.5 28 28 28h22.4c15.5 0 28-12.5 28-28s-12.5-28-28-28zM535.5 394.4H680c15.5 0 28-12.5 28-28s-12.5-28-28-28H535.5c-15.5 0-28 12.5-28 28s12.6 28 28 28zM803.2 484H535.5c-15.5 0-28 12.5-28 28s12.5 28 28 28h267.7c15.5 0 28-12.5 28-28s-12.5-28-28-28zM803.2 629.6H535.5c-15.5 0-28 12.5-28 28s12.5 28 28 28h267.7c15.5 0 28-12.5 28-28s-12.5-28-28-28z" fill="#625e6b" p-id="2266"></path></svg>