<?xml version="1.0" standalone="no"?><!DOCTYPE svg PUBLIC "-//W3C//DTD SVG 1.1//EN" "http://www.w3.org/Graphics/SVG/1.1/DTD/svg11.dtd"><svg t="1640189299120" class="icon" viewBox="0 0 1024 1024" version="1.1" xmlns="http://www.w3.org/2000/svg" p-id="12223" xmlns:xlink="http://www.w3.org/1999/xlink" width="200" height="200"><defs><style type="text/css"></style></defs><path d="M549.781333 207.488a117.333333 117.333333 0 0 1 175.402667 95.744l0.149333 6.122667v388.586666a117.333333 117.333333 0 0 1-170.154666 104.746667l-5.397334-2.88-163.605333-93.504H266.666667a117.333333 117.333333 0 0 1-117.248-112.618667L149.333333 589.013333v-170.666666a117.333333 117.333333 0 0 1 112.618667-117.248l4.714667-0.106667h119.466666l163.648-93.482667z m102.613334 72.298667a53.333333 53.333333 0 0 0-67.626667-18.453334l-3.221333 1.706667L426.666667 351.530667v304.213333l154.88 88.490667a53.333333 53.333333 0 0 0 17.770666 6.314666l4.714667 0.576 3.968 0.149334a53.333333 53.333333 0 0 0 53.226667-49.834667l0.106666-3.498667V309.333333a53.333333 53.333333 0 0 0-5.184-22.954666l-1.834666-3.498667-1.92-3.114667zM352 364.949333l-85.333333 0.021334a53.333333 53.333333 0 0 0-52.885334 46.378666l-0.341333 3.456-0.106667 3.498667v170.666667a53.333333 53.333333 0 0 0 49.834667 53.226666l3.498667 0.106667 85.333333-0.021333v-277.333334zM772.330667 374.442667a32 32 0 0 1 43.733333-11.669334A159.914667 159.914667 0 0 1 896 501.333333a159.914667 159.914667 0 0 1-79.957333 138.56A32 32 0 0 1 784 584.533333 95.936 95.936 0 0 0 832 501.333333a95.936 95.936 0 0 0-48-83.157333 32 32 0 0 1-11.669333-43.733333z" p-id="12224" fill="#B3ACC1"></path></svg>