<?xml version="1.0" standalone="no"?><!DOCTYPE svg PUBLIC "-//W3C//DTD SVG 1.1//EN" "http://www.w3.org/Graphics/SVG/1.1/DTD/svg11.dtd"><svg t="1644516478907" class="icon" viewBox="0 0 1024 1024" version="1.1" xmlns="http://www.w3.org/2000/svg" p-id="2550" xmlns:xlink="http://www.w3.org/1999/xlink" width="200" height="200"><defs><style type="text/css"></style></defs><path d="M512 78.250667c138.453333 0 250.666667 112.213333 250.666667 250.666666V730.666667l5.333333 0.021333a165.333333 165.333333 0 0 1 165.248 160.085333l0.085333 5.248v42.666667A37.333333 37.333333 0 0 1 896 976H128A37.333333 37.333333 0 0 1 90.666667 938.666667v-42.666667A165.333333 165.333333 0 0 1 256 730.666667h5.333333V328.896c0-136.32 108.8-247.210667 244.288-250.581333zM768 805.333333H256A90.666667 90.666667 0 0 0 165.333333 896v5.333333h693.333334V896a90.666667 90.666667 0 0 0-86.272-90.56L768 805.333333zM512 152.917333a176 176 0 0 0-176 176V730.666667h352v-401.706667a176 176 0 0 0-170.624-175.936zM83.242667 286.933333a32 32 0 0 1 40.106666-15.530666l2.816 1.237333 80.149334 40.064A32 32 0 0 1 180.48 371.2l-2.816-1.237333-80.128-40.085334a32 32 0 0 1-14.314667-42.922666zM945.962667 286.933333a32 32 0 0 0-40.106667-15.530666l-2.837333 1.237333-80.128 40.064a32 32 0 0 0 25.792 58.496l2.816-1.237333 80.149333-40.085334a32 32 0 0 0 14.293333-42.922666z" p-id="2551" fill="#b3acc1"></path><path d="M83.242667 526.293333a32 32 0 0 0 40.106666 15.573334l2.816-1.237334 80.149334-40.085333a32 32 0 0 0-25.813334-58.474667l-2.816 1.237334-80.128 40.064a32 32 0 0 0-14.314666 42.944zM945.962667 526.293333a32 32 0 0 1-40.106667 15.573334l-2.837333-1.237334-80.128-40.085333a32 32 0 0 1 25.792-58.474667l2.816 1.237334 80.149333 40.064a32 32 0 0 1 14.293333 42.944zM530.474667 211.84a26.666667 26.666667 0 0 1 35.413333-12.928c42.368 19.669333 69.312 51.498667 78.805333 93.930667a26.666667 26.666667 0 0 1-52.053333 11.648c-5.76-25.770667-21.482667-44.330667-49.216-57.216a26.666667 26.666667 0 0 1-12.949333-35.413334z" p-id="2552" fill="#b3acc1"></path></svg>