<?xml version="1.0" standalone="no"?><!DOCTYPE svg PUBLIC "-//W3C//DTD SVG 1.1//EN" "http://www.w3.org/Graphics/SVG/1.1/DTD/svg11.dtd"><svg t="1644516559140" class="icon" viewBox="0 0 1024 1024" version="1.1" xmlns="http://www.w3.org/2000/svg" p-id="1958" xmlns:xlink="http://www.w3.org/1999/xlink" width="200" height="200"><defs><style type="text/css"></style></defs><path d="M637.866667 69.333333a92.8 92.8 0 0 1 92.693333 88.32l0.106667 4.48v45.866667H874.666667a37.333333 37.333333 0 0 1 3.072 74.538667L874.666667 282.666667H149.333333a37.333333 37.333333 0 0 1-3.072-74.538667L149.333333 208h144V162.133333a92.8 92.8 0 0 1 88.32-92.693333l4.48-0.106667h251.733334z m0 74.666667H386.133333a18.133333 18.133333 0 0 0-17.984 15.850667l-0.149333 2.282666v45.866667h288V162.133333a18.133333 18.133333 0 0 0-15.850667-17.984L637.866667 144zM810.666667 346.666667a37.333333 37.333333 0 0 1 37.205333 34.261333l0.128 3.072v426.666667a165.333333 165.333333 0 0 1-160.085333 165.248L682.666667 976H341.333333a165.333333 165.333333 0 0 1-165.248-160.085333L176 810.666667V384a37.333333 37.333333 0 0 1 74.538667-3.072l0.128 3.072v426.666667a90.666667 90.666667 0 0 0 86.272 90.56l4.394666 0.106666h341.333334a90.666667 90.666667 0 0 0 90.56-86.272L773.333333 810.666667V384c0-20.608 16.725333-37.333333 37.333334-37.333333z" p-id="1959" fill="#b3acc1"></path><path d="M416 432a37.333333 37.333333 0 0 1 37.205333 34.261333l0.128 3.072v256a37.333333 37.333333 0 0 1-74.538666 3.072L378.666667 725.333333V469.333333c0-20.608 16.725333-37.333333 37.333333-37.333333zM608 432a37.333333 37.333333 0 0 1 37.205333 34.261333l0.128 3.072v256a37.333333 37.333333 0 0 1-74.538666 3.072L570.666667 725.333333V469.333333c0-20.608 16.725333-37.333333 37.333333-37.333333z" p-id="1960" fill="#b3acc1"></path></svg>