<?xml version="1.0" standalone="no"?><!DOCTYPE svg PUBLIC "-//W3C//DTD SVG 1.1//EN" "http://www.w3.org/Graphics/SVG/1.1/DTD/svg11.dtd"><svg t="1641916905005" class="icon" viewBox="0 0 1024 1024" version="1.1" xmlns="http://www.w3.org/2000/svg" p-id="5750" xmlns:xlink="http://www.w3.org/1999/xlink" width="200" height="200"><defs><style type="text/css"></style></defs><path d="M568.832 401.408h141.312l-165.888-159.744v135.168c0 13.312 11.264 24.576 24.576 24.576" fill="#B3ACC1" p-id="5751" data-spm-anchor-id="a313x.7781069.0.i5" class=""></path><path d="M675.84 560.128c0 13.824-11.264 25.088-24.576 25.088H360.448c-13.312 0-24.576-11.264-24.576-25.088 0-13.312 11.264-24.576 24.576-24.576h290.816c13.312 0 24.576 11.264 24.576 24.576m-24.576 165.376H360.448c-13.312 0-24.576-11.264-24.576-24.576 0-13.824 11.264-25.088 24.576-25.088h290.816c13.312 0 24.576 11.264 24.576 25.088 0 13.312-11.264 24.576-24.576 24.576M360.448 380.928h44.544c13.312 0 24.576 11.264 24.576 24.576 0 13.824-11.264 25.088-24.576 25.088h-44.544c-13.312 0-24.576-11.264-24.576-25.088 0-13.312 11.264-24.576 24.576-24.576m134.144-4.096V208.384H301.568c-13.824 0-24.576 11.264-24.576 24.576v558.08c0 13.824 10.752 24.576 24.576 24.576h420.864c13.312 0 24.576-10.752 24.576-24.576V450.56H568.832c-40.96 0-74.24-33.28-74.24-73.728" fill="#B3ACC1" p-id="5752" data-spm-anchor-id="a313x.7781069.0.i6" class=""></path><path d="M796.16 791.04c0 40.96-32.768 74.24-73.728 74.24H301.568c-40.96 0-74.24-33.28-74.24-74.24v-558.08c0-40.448 33.28-73.728 74.24-73.728h207.872c2.048 0 3.584 0 5.632 0.512 7.68-1.536 15.872 0.512 21.504 6.144l252.416 242.176c0 0.512 0.512 1.024 1.024 1.536 1.024 1.024 1.536 2.048 2.56 3.584 0.512 0.512 1.024 1.536 1.024 2.048 1.024 1.536 1.536 3.072 2.048 4.608v1.024c0.512 2.048 0.512 3.584 0.512 5.12v365.056zM921.6 0H102.4C46.08 0 0 46.08 0 102.4v819.2C0 977.92 46.08 1024 102.4 1024h819.2c56.32 0 102.4-46.08 102.4-102.4V102.4C1024 46.08 977.92 0 921.6 0z" fill="#B3ACC1" p-id="5753" data-spm-anchor-id="a313x.7781069.0.i4" class=""></path></svg>