<?xml version="1.0" standalone="no"?><!DOCTYPE svg PUBLIC "-//W3C//DTD SVG 1.1//EN" "http://www.w3.org/Graphics/SVG/1.1/DTD/svg11.dtd"><svg t="1640191790039" class="icon" viewBox="0 0 1024 1024" version="1.1" xmlns="http://www.w3.org/2000/svg" p-id="2656" xmlns:xlink="http://www.w3.org/1999/xlink" width="200" height="200"><defs><style type="text/css"></style></defs><path d="M522.24 768c-15.36 0-25.6 10.24-30.72 25.6L460.8 931.84v10.24c0 15.36 15.36 30.72 30.72 30.72h455.68c15.36-5.12 25.6-25.6 20.48-40.96l-30.72-138.24c-5.12-15.36-15.36-25.6-30.72-25.6h-384z" fill="#B3ACC1" p-id="2657" data-spm-anchor-id="a313x.7781069.0.i19" class=""></path><path d="M184.32 665.6c-25.6 0-46.08 15.36-51.2 40.96l-51.2 204.8v10.24c0 30.72 20.48 51.2 51.2 51.2h773.12c25.6-5.12 46.08-35.84 35.84-61.44l-51.2-204.8c-5.12-20.48-25.6-40.96-51.2-40.96H184.32z m0-51.2h660.48c46.08 0 87.04 30.72 97.28 76.8l51.2 204.8c15.36 56.32-20.48 112.64-76.8 122.88-10.24 0-15.36 5.12-25.6 5.12H133.12c-56.32 0-102.4-46.08-102.4-102.4 0-10.24 0-15.36 5.12-25.6l51.2-204.8c5.12-46.08 46.08-76.8 97.28-76.8zM512 460.8c112.64 0 204.8-92.16 204.8-204.8s-92.16-204.8-204.8-204.8-204.8 92.16-204.8 204.8 92.16 204.8 204.8 204.8z m0 51.2c-143.36 0-256-112.64-256-256s112.64-256 256-256 256 112.64 256 256-112.64 256-256 256z" fill="#3F394B" p-id="2658" data-spm-anchor-id="a313x.7781069.0.i20" class=""></path></svg>