<?xml version="1.0" standalone="no"?><!DOCTYPE svg PUBLIC "-//W3C//DTD SVG 1.1//EN" "http://www.w3.org/Graphics/SVG/1.1/DTD/svg11.dtd"><svg t="1640189263809" class="icon" viewBox="0 0 1024 1024" version="1.1" xmlns="http://www.w3.org/2000/svg" p-id="12030" xmlns:xlink="http://www.w3.org/1999/xlink" width="200" height="200"><defs><style type="text/css"></style></defs><path d="M528.362667 149.333333a32 32 0 0 1 31.850666 28.928l0.149334 3.072v29.44c135.701333 19.541333 240.469333 134.826667 243.669333 275.157334l0.064 6.613333V752.64h17.237333a32 32 0 0 1 3.072 63.872l-3.072 0.149333h-597.333333a32 32 0 0 1-3.072-63.872l3.072-0.128 10.666667-0.021333V492.544c0-149.482667 115.2-272.085333 261.696-283.797333V181.333333a32 32 0 0 1 32-32z m-8.96 122.496c-119.914667 0-217.493333 95.616-220.650667 214.741334l-0.085333 5.973333V752.64h441.429333V492.544c0-121.898667-98.816-220.714667-220.714667-220.714667z" p-id="12031" fill="#3F394B"></path><path d="M522.666667 879.829333a64 64 0 0 0 64-64c0-35.349333-28.650667-31.168-64-31.168s-64-4.181333-64 31.168a64 64 0 0 0 64 64z" p-id="12032" fill="#3F394B"></path><path d="M635.029333 517.525333a32 32 0 0 1 31.850667 28.906667l0.149333 3.093333v119.616a32 32 0 0 1-63.850666 3.072l-0.149334-3.072v-119.616a32 32 0 0 1 32-32z" p-id="12033" fill="#3F394B"></path></svg>