<?xml version="1.0" standalone="no"?><!DOCTYPE svg PUBLIC "-//W3C//DTD SVG 1.1//EN" "http://www.w3.org/Graphics/SVG/1.1/DTD/svg11.dtd"><svg t="1641916907222" class="icon" viewBox="0 0 1024 1024" version="1.1" xmlns="http://www.w3.org/2000/svg" p-id="7781" xmlns:xlink="http://www.w3.org/1999/xlink" width="200" height="200"><defs><style type="text/css"></style></defs><path d="M905.4 0H118.5C53.3 0 0.4 52.9 0.4 118.2v787.7c0 65.2 52.8 118.1 118.1 118.1h786.9c65.2 0 118.1-52.9 118.1-118.2V118.2C1023.5 52.9 970.6 0 905.4 0z m-70 259.4h-46.2v544.8c0 16.5-6.5 32.4-18 44-11.5 11.7-27.2 18.2-43.5 18.2l-215.5-109-215.6 109c-16.3 0-32-6.6-43.5-18.2a62.79 62.79 0 0 1-18-44V259.4h-46.2c-17 0-30.8-13.9-30.8-31.1s13.8-31.1 30.8-31.1h646.6c17 0 30.8 13.9 30.8 31.1s-13.9 31.1-30.9 31.1z" p-id="7782" data-spm-anchor-id="a313x.7781069.0.i2" class="" fill="#B3ACC1"></path><path d="M296.6 788.6l215.6-93.4 215.5 93.4V259.4H296.6v529.2z m107.7-342.4h77v-77.8c0-17.2 13.8-31.1 30.8-31.1s30.8 13.9 30.8 31.1v77.8h77c17 0 30.8 13.9 30.8 31.1 0 17.2-13.8 31.1-30.8 31.1h-77v77.8c0 17.2-13.8 31.1-30.8 31.1s-30.8-13.9-30.8-31.1v-77.8h-77c-17 0-30.8-13.9-30.8-31.1 0-17.2 13.8-31.1 30.8-31.1z" p-id="7783" data-spm-anchor-id="a313x.7781069.0.i3" class="" fill="#B3ACC1"></path></svg>